<svg xmlns="http://www.w3.org/2000/svg" viewBox="0 0 500 500"><g id="freepik--Plants--inject-2"><g id="freepik--plants--inject-2"><path d="M54.28,280.43l8.25-4.76s4.91-20.4,3-38.76c-2.75-25.8-19.73-35.51-26.19-33.29s-8.33,9.74,2.35,25.11C48,237.8,55.7,256.68,54.28,280.43Z" style="fill:#42454A"></path><g style="opacity:0.15"><path d="M54.28,280.43l8.25-4.76s4.91-20.4,3-38.76c-2.75-25.8-19.73-35.51-26.19-33.29s-8.33,9.74,2.35,25.11C48,237.8,55.7,256.68,54.28,280.43Z"></path></g><path d="M57.7,270.41h-.08a.57.57,0,0,1-.45-.67c4.52-23.8-3.8-50.55-14.09-61.68a.56.56,0,0,1,0-.81.57.57,0,0,1,.81,0c10.48,11.33,19,38.51,14.37,62.67A.56.56,0,0,1,57.7,270.41Z" style="fill:#fff"></path><path d="M31.49,296.53c-1.3.66-4.77-2.31-5.73-3A12.05,12.05,0,0,1,22,288.69a11.36,11.36,0,0,1-.66-6.86,26,26,0,0,1,1-3.57c.39-1.15.79-2.31,1.19-3.46a9,9,0,0,0,.69-3.52c-.19-2.41-2.23-4.2-4.1-5.75-2.06-1.71-4.19-3.94-4-6.83A10.19,10.19,0,0,1,19,252.77c1.48-1.68,3.19-3.14,4.54-4.93a7.16,7.16,0,0,0,1.68-4.42,7.44,7.44,0,0,0-.84-2.85c-.93-1.94-2.18-3.73-2.79-5.79s-.37-4.56,1.28-5.93c1.36-1.12,3.29-1.19,5-1a11.48,11.48,0,0,1,4.54,1.86c4.46,2.79,6.81,8.36,11.58,10.56A46.41,46.41,0,0,0,49.8,242c1.93.62,3.88,1.72,4.69,3.58,1.61,3.66-1.93,7.89-.86,11.74.94,3.41,4.13,4.86,5.81,8a7.17,7.17,0,0,1,.64,4.43,21.05,21.05,0,0,1-2.23,7.33,65.45,65.45,0,0,1-4.41,6.77S31.69,296.43,31.49,296.53Z" style="fill:#42454A"></path><path d="M44.12,290h0a.57.57,0,0,1-.52-.63c2.08-22.64-7.34-48.22-14.75-55.89a.57.57,0,0,1,.82-.8c7.56,7.82,17.18,33.84,15.07,56.8A.59.59,0,0,1,44.12,290Z" style="fill:#fff"></path><path d="M41.87,262a.51.51,0,0,1-.17,0,77.15,77.15,0,0,0-16.33-3.49.57.57,0,0,1-.52-.62.56.56,0,0,1,.62-.52,78.25,78.25,0,0,1,16.62,3.55.57.57,0,0,1,.34.74A.56.56,0,0,1,41.87,262Z" style="fill:#fff"></path></g><g id="freepik--plants--inject-2"><path d="M456.29,290.3l-9.8-3.8s-5.21-18.92-6.07-34.07c-1.2-21.28,8.4-48.62,25.48-45.21s-3.16,28.43-5.63,47S456.29,290.3,456.29,290.3Z" style="fill:#42454A"></path><path d="M456.29,290.3l-9.8-3.8s-5.21-18.92-6.07-34.07c-1.2-21.28,8.4-48.62,25.48-45.21s-3.16,28.43-5.63,47S456.29,290.3,456.29,290.3Z" style="opacity:0.15"></path><path d="M451.22,288.85h0a.55.55,0,0,0,.44-.64c-8.84-46.34,10.7-73.39,10.89-73.66a.55.55,0,1,0-.88-.65c-.2.27-20,27.71-11.1,74.52A.56.56,0,0,0,451.22,288.85Z" style="fill:#fff"></path><path d="M462.45,292.65l-7-2.7s-3.14-13.05.84-30.12c3.46-14.86,15.65-28.64,23.07-27.3s8,6.36,5.41,12.14S463.23,266.18,462.45,292.65Z" style="fill:#42454A"></path><path d="M458.86,291.77h0a.55.55,0,0,0,.46-.63c-4.72-29.43,19.83-53.65,20.08-53.89a.54.54,0,0,0,0-.78.53.53,0,0,0-.77,0c-.26.24-25.22,24.86-20.41,54.86A.55.55,0,0,0,458.86,291.77Z" style="fill:#fff"></path></g></g><g id="freepik--Floor--inject-2"><g id="freepik--floor--inject-2"><ellipse id="freepik--floor--inject-2" cx="248" cy="346.36" rx="234.67" ry="135.49" style="fill:#e0e0e0"></ellipse><path d="M275.34,480.92c50.65-3.41,99.74-16.33,138.6-38.76,32.35-18.68,53.26-41.45,62.77-65.43L195.39,214.31c-41.53,5.49-81,17.57-113.33,36.24-38.85,22.44-61.23,50.78-67.13,80Z" style="fill:#f5f5f5"></path></g></g><g id="freepik--Shadows--inject-2"><path id="freepik--Shadow--inject-2" d="M190.2,412.82c9.92,5.31,19.77,10.77,30.28,14.79,6.78,2.59,14.06,4.38,21.35,4.24,5.92-.12,14.22-2,16.93-8.32,1.66-3.88.19-8.54-2.55-11.75s-6.55-5.29-10.26-7.3l-53.69-29c-17.64-9.52-35.39-19.08-54.34-25.76-7.41-2.61-17-6.89-25-5.64-4.84.75-10.34,2.56-13.52,6.48-3.93,4.84-3.61,9,1,12.64,6.14,4.79,11.47,7.52,16.91,10.44C142,386.94,165.55,399.62,190.2,412.82Z" style="fill:#e0e0e0"></path><path id="freepik--shadow--inject-2" d="M352.68,384.68c9.92,5.31,19.63,10.11,29.86,14.78a53.72,53.72,0,0,0,22.39,4.7c5.92-.12,13.6-2.45,16.31-8.77,1.66-3.88.19-8.54-2.55-11.75s-6.54-5.3-10.26-7.3l-53.69-29c-17.64-9.52-35.39-19.08-54.34-25.76-7.41-2.61-17-6.89-25-5.64-4.84.75-10.34,2.56-13.52,6.48-3.93,4.84-3.61,9,1,12.64,6.14,4.79,11.47,7.51,16.91,10.43C304.5,358.8,328,371.48,352.68,384.68Z" style="fill:#e0e0e0"></path></g><g id="freepik--Clouds--inject-2"><g id="freepik--clouds--inject-2"><path d="M84.3,34.56l-8.82,5.1c0-.4.07-.79.07-1.17V35.93c0-4.54-3.19-6.39-7.13-4.11a13.81,13.81,0,0,0-4.25,4.08c-.65-5.72-5.13-7.85-10.58-4.7-5.9,3.4-10.67,11.68-10.67,18.48V53.5a10,10,0,0,0,.9,4.43l-7.33,4.23a8.77,8.77,0,0,0-4,6.86c0,2.52,1.77,3.54,4,2.28L84.3,43.7a8.75,8.75,0,0,0,4-6.85C88.25,34.33,86.48,33.3,84.3,34.56Z" style="fill:#ebebeb"></path><path d="M119.85,53.79l-6.65,3.84a8.65,8.65,0,0,0,0-.88V54.82c0-3.43-2.41-4.82-5.38-3.1a10.41,10.41,0,0,0-3.21,3.08c-.48-4.32-3.87-5.92-8-3.55-4.45,2.57-8.06,8.81-8.06,14v2.88a7.74,7.74,0,0,0,.68,3.35l-5.53,3.19a6.62,6.62,0,0,0-3,5.17c0,1.9,1.34,2.68,3,1.72l36.08-20.83a6.59,6.59,0,0,0,3-5.17C122.84,53.61,121.5,52.84,119.85,53.79Z" style="fill:#ebebeb"></path></g></g><g id="freepik--character-2--inject-2"><g id="freepik--Character--inject-2"><path d="M282.47,285.76l-.82,1.65-7.59,4.39a12.52,12.52,0,0,1,.66-1.38,5.73,5.73,0,0,1,.38-.62,4,4,0,0,1,.4-.58,9,9,0,0,1,1.6-1.7l.37-.28.53-.35a9.78,9.78,0,0,1,1-.52c.18-.08.36-.14.54-.2l.13-.05a9.3,9.3,0,0,1,1-.26A8.39,8.39,0,0,1,282.47,285.76Z" style="fill:#42454A"></path><path d="M282.47,285.76l-.82,1.65-7.59,4.39a12.52,12.52,0,0,1,.66-1.38,5.73,5.73,0,0,1,.38-.62,4,4,0,0,1,.4-.58,9,9,0,0,1,1.6-1.7l.37-.28.53-.35a9.78,9.78,0,0,1,1-.52c.18-.08.36-.14.54-.2l.13-.05a9.3,9.3,0,0,1,1-.26A8.39,8.39,0,0,1,282.47,285.76Z" style="opacity:0.6000000000000001"></path><path d="M309.87,314.89h0c0-11.09-6.75-24-15.07-28.78-.43-.25-.86-.46-1.29-.66l-.12-.06c-.29-.13-.57-.23-.86-.33s-.43-.17-.64-.24-.42-.12-.63-.17-.58-.14-.86-.19l-.46-.06c-.33,0-.65-.06-1-.07h-.78a17.62,17.62,0,0,0-14.28,8.15,14.38,14.38,0,0,0-2.64,7.26,17.87,17.87,0,0,0-.17,2.33c0,.07,0,.14,0,.2s0,.15,0,.22h0c0,11.09,6.75,24,15.07,28.78a14,14,0,0,0,1.28.65l.13.06a8.36,8.36,0,0,0,.85.34l.65.24.63.17c.29.07.58.14.86.18l.46.07c.33,0,1.44.08,1.57.08h.19a17.66,17.66,0,0,0,14.28-8.15,14.47,14.47,0,0,0,2.64-7.26,17.89,17.89,0,0,0,.17-2.34c0-.06,0-.13,0-.2s0-.14,0-.21Z" style="fill:#37474f"></path><ellipse cx="286.16" cy="311.2" rx="13.08" ry="23.13" transform="translate(-99 136.89) rotate(-23.05)" style="fill:#455a64"></ellipse><path d="M290.54,327.68a9.3,9.3,0,0,1-4.61-1.38c-6.21-3.59-11.26-13.22-11.26-21.47,0-4.44,1.47-7.84,4-9.32,2.15-1.24,4.87-1,7.67.58,6.21,3.59,11.26,13.22,11.26,21.48,0,4.43-1.47,7.83-4,9.31A6.08,6.08,0,0,1,290.54,327.68Zm-8.77-32.07a5.21,5.21,0,0,0-2.61.68c-2.28,1.32-3.59,4.43-3.59,8.54,0,8,4.85,17.25,10.81,20.69,2.51,1.45,4.91,1.65,6.77.58,2.28-1.32,3.59-4.43,3.59-8.53,0-8-4.85-17.26-10.81-20.7A8.49,8.49,0,0,0,281.77,295.61Z" style="fill:#37474f"></path><path d="M291.44,316.4a2.29,2.29,0,0,0,.65,2l1.16,1.15a4.26,4.26,0,0,1-4.41,2.94l-.27-1.74a2.09,2.09,0,0,0-1.17-1.65c-.53-.14-.85.37-.73,1.13l.27,1.74a13.66,13.66,0,0,1-5.76-5.68l.88-.6a1.07,1.07,0,0,0,.29-1.08,3,3,0,0,0-.23-.72c-.37-.73-1-1.12-1.38-.85l-.89.59a19.91,19.91,0,0,1-1.27-4.46,14.35,14.35,0,0,1-.09-4.16l1.17,1.15a1.11,1.11,0,0,0,.5.31.56.56,0,0,0,.72-.47,2.35,2.35,0,0,0-.65-2l-1.16-1.15a4.22,4.22,0,0,1,4.4-2.93l.28,1.73a2.06,2.06,0,0,0,1.17,1.65c.52.14.85-.37.73-1.13l-.28-1.74a13.74,13.74,0,0,1,5.77,5.68l-.89.6a1.07,1.07,0,0,0-.28,1.08,2.32,2.32,0,0,0,.23.72c.37.73,1,1.12,1.38.85l.89-.59a20.7,20.7,0,0,1,1.27,4.48,14.17,14.17,0,0,1,.08,4.14l-1.16-1.15a1.08,1.08,0,0,0-.51-.31A.55.55,0,0,0,291.44,316.4Z" style="fill:#37474f"></path><path d="M367.32,363.71l-83.18-48a7.2,7.2,0,0,1-3-5.74h0c0-2.21,1.35-3.23,3-2.27L296.82,315l2.33.2L373.32,357Z" style="fill:#263238"></path><path d="M293,319.35l-9-5.17a4.53,4.53,0,0,1-1.89-3.62h0c0-1.39.84-2,1.89-1.43l9,5.17a4.52,4.52,0,0,1,1.9,3.62h0C294.94,319.31,294.09,320,293,319.35Z" style="fill:#37474f"></path><path d="M293,317.62l-8.77-5.07a1.51,1.51,0,0,1-.64-1.21h0c0-.47.29-.68.64-.48l8.77,5.07a1.51,1.51,0,0,1,.64,1.21h0C293.59,317.61,293.3,317.82,293,317.62Z" style="fill:#42454A"></path><polygon points="367.32 363.71 379.89 356.45 385.89 349.71 373.32 356.97 367.32 363.71"></polygon><path d="M381.37,342.08l-64.13-37-16.57,9.57v2.58l64.14,37c5.77,3.33,14.15,3.89,18.72,1.24,2-1.12,2.89-2.65,2.87-4.29,0-.42,0-2.12,0-2.56C386.41,346.41,384.68,344,381.37,342.08Z" style="fill:#37474f"></path><path d="M381.37,341l-64.13-37-16.57,9.57v2.58l64.14,37c5.77,3.33,14.15,3.89,18.72,1.24,2-1.12,2.89-2.65,2.87-4.29,0-.42,0-2.12,0-2.56C386.41,345.29,384.68,342.87,381.37,341Z" style="fill:#42454A"></path><path d="M381.37,341l-64.13-37-16.57,9.57v2.58l64.14,37c5.77,3.33,14.15,3.89,18.72,1.24,2-1.12,2.89-2.65,2.87-4.29,0-.42,0-2.12,0-2.56C386.41,345.29,384.68,342.87,381.37,341Z" style="opacity:0.30000000000000004"></path><path d="M383.54,351.78c-4.58,2.64-13,2.08-18.73-1.25l-64.13-37,2.88-1.68,1.65-.95h0l7.57-4.38,4.44-2.57,64.12,37C387.14,344.29,388.11,349.14,383.54,351.78Z" style="fill:#42454A"></path><path d="M305.21,310.88l-1.65.95c-1.81-9.94-7.9-20-15.15-24.2a12.51,12.51,0,0,0-5.94-1.87,8.39,8.39,0,0,0-1.74.1,9.3,9.3,0,0,0-1,.26l-.13.05c-.18.06-.36.12-.54.2a9.78,9.78,0,0,0-1,.52,6.06,6.06,0,0,0-.53.35,3.27,3.27,0,0,0-.37.28,9,9,0,0,0-1.6,1.7,4,4,0,0,0-.4.58,5.73,5.73,0,0,0-.38.62,12.52,12.52,0,0,0-.66,1.38,2.49,2.49,0,0,1-2.68.55c.94-4,2.87-6.81,5.45-8.31,3.1-1.78,7.16-1.61,11.58.94C296.24,289.51,302.89,300.13,305.21,310.88Z" style="fill:#42454A"></path><path d="M305.21,310.88l-1.65.95c-1.81-9.94-7.9-20-15.15-24.2a12.51,12.51,0,0,0-5.94-1.87,8.39,8.39,0,0,0-1.74.1,9.3,9.3,0,0,0-1,.26l-.13.05c-.18.06-.36.12-.54.2a9.78,9.78,0,0,0-1,.52,6.06,6.06,0,0,0-.53.35,3.27,3.27,0,0,0-.37.28,9,9,0,0,0-1.6,1.7,4,4,0,0,0-.4.58,5.73,5.73,0,0,0-.38.62,12.52,12.52,0,0,0-.66,1.38,2.49,2.49,0,0,1-2.68.55c.94-4,2.87-6.81,5.45-8.31,3.1-1.78,7.16-1.61,11.58.94C296.24,289.51,302.89,300.13,305.21,310.88Z" style="opacity:0.4"></path><path d="M305.23,310.88h0c-2.32-10.75-9-21.37-16.8-25.9-4.42-2.55-8.48-2.72-11.58-.94l7.6-4.39c3.1-1.78,7.14-1.61,11.57.94,7.84,4.53,14.48,15.15,16.8,25.9h0C313.84,311.18,310.07,313.68,305.23,310.88Z" style="fill:#42454A"></path><g style="opacity:0.2"><path d="M305.23,310.88h0c-2.32-10.75-9-21.37-16.8-25.9-4.42-2.55-8.48-2.72-11.58-.94l7.6-4.39c3.1-1.78,7.14-1.61,11.57.94,7.84,4.53,14.48,15.15,16.8,25.9h0C313.84,311.18,310.07,313.68,305.23,310.88Z"></path></g><path d="M401,343.71a.52.52,0,0,1-.24,0,.6.6,0,0,1-.31-.79c3.69-8.33,2.37-13.84-.1-16.21a5.3,5.3,0,0,0-6.24-.9.61.61,0,0,1-.81-.28.59.59,0,0,1,.28-.8,6.55,6.55,0,0,1,7.61,1.11c2.76,2.65,4.3,8.67.36,17.56A.6.6,0,0,1,401,343.71Z" style="fill:#263238"></path><path d="M404.37,346.73a.61.61,0,0,1-.55-.84c3.51-8.19,2.22-15.15.05-18.63a8.24,8.24,0,0,0-5-3.64,6.86,6.86,0,0,0-5.31,1,.6.6,0,0,1-.83-.18.61.61,0,0,1,.18-.84,8.06,8.06,0,0,1,6.22-1.15,9.42,9.42,0,0,1,5.79,4.17c2.33,3.73,3.73,11.13,0,19.74A.61.61,0,0,1,404.37,346.73Z" style="fill:#263238"></path><path d="M418,377.33h0c0-11.1-6.75-24-15.07-28.79-.43-.25-.86-.45-1.29-.65l-.12-.06c-.29-.13-.57-.23-.86-.34s-.43-.17-.64-.23-.42-.12-.63-.17-.58-.14-.86-.19-.31,0-.46-.06a8.07,8.07,0,0,0-1-.07l-.19,0h-.59A17.63,17.63,0,0,0,382,354.91a14.34,14.34,0,0,0-2.64,7.25,18,18,0,0,0-.17,2.34c0,.07,0,.13,0,.2s0,.14,0,.22h0c0,11.1,6.75,24,15.07,28.79.43.25.86.45,1.28.65l.13.06c.29.13.57.23.85.34s.44.17.65.23.42.12.63.17.58.14.86.19l.46.06c.33,0,1.44.09,1.57.08h.19a17.61,17.61,0,0,0,14.28-8.15,14.38,14.38,0,0,0,2.64-7.25,18.15,18.15,0,0,0,.17-2.34c0-.07,0-.13,0-.2s0-.14,0-.22Z" style="fill:#37474f"></path><ellipse cx="394.3" cy="373.63" rx="13.08" ry="23.13" transform="translate(-114.81 184.22) rotate(-23.05)" style="fill:#455a64"></ellipse><path d="M398.68,390.12a9.32,9.32,0,0,1-4.61-1.39c-6.21-3.58-11.26-13.21-11.26-21.47,0-4.44,1.48-7.83,4-9.31,2.15-1.24,4.87-1,7.67.58,6.21,3.58,11.26,13.22,11.26,21.47,0,4.44-1.47,7.83-4,9.31A6,6,0,0,1,398.68,390.12Zm-8.77-32.07a5.11,5.11,0,0,0-2.61.68c-2.28,1.31-3.59,4.42-3.59,8.53,0,8,4.85,17.25,10.81,20.69,2.51,1.45,4.91,1.66,6.77.58,2.28-1.31,3.59-4.42,3.59-8.53,0-8-4.85-17.25-10.81-20.69A8.39,8.39,0,0,0,389.91,358.05Z" style="fill:#37474f"></path><path d="M399.58,378.83a2.33,2.33,0,0,0,.65,2l1.16,1.15a4.26,4.26,0,0,1-4.41,2.94l-.27-1.74a2.08,2.08,0,0,0-1.17-1.64c-.53-.14-.85.37-.73,1.13l.27,1.74a13.78,13.78,0,0,1-5.76-5.68l.88-.6a1.09,1.09,0,0,0,.29-1.08,3,3,0,0,0-.23-.72c-.37-.74-1-1.12-1.38-.86l-.89.6a20,20,0,0,1-1.27-4.47,14.35,14.35,0,0,1-.09-4.16l1.17,1.15a1.24,1.24,0,0,0,.5.32.56.56,0,0,0,.72-.47,2.34,2.34,0,0,0-.65-2l-1.16-1.15a4.24,4.24,0,0,1,4.4-2.94l.28,1.74a2.06,2.06,0,0,0,1.17,1.64c.52.15.85-.36.73-1.13l-.28-1.74a13.79,13.79,0,0,1,5.77,5.68l-.89.6a1.09,1.09,0,0,0-.28,1.08,2.32,2.32,0,0,0,.23.72c.37.74,1,1.12,1.38.86l.89-.6a20.86,20.86,0,0,1,1.27,4.48,14.24,14.24,0,0,1,.08,4.15l-1.16-1.15a1.2,1.2,0,0,0-.51-.32A.55.55,0,0,0,399.58,378.83Z" style="fill:#37474f"></path><path d="M393.21,333.85l-2.09-12.49L369.93,345h0c-1.11,1.25-.8,2.81,1,3.85a8.91,8.91,0,0,0,8.06,0,4.23,4.23,0,0,0,1-.79h0Z" style="fill:#37474f"></path><path d="M397.74,339.15h0L392,305.56l-7.17.4,2.9,17.05,2.09,12.5.74,4.12h0a2,2,0,0,0,1,1.22,5.66,5.66,0,0,0,5.1,0A1.66,1.66,0,0,0,397.74,339.15Z" style="fill:#42454A"></path><ellipse cx="388.48" cy="305.85" rx="3.6" ry="2.08" style="fill:#42454A"></ellipse><ellipse cx="388.48" cy="305.85" rx="3.6" ry="2.08" style="opacity:0.30000000000000004"></ellipse><path d="M390.3,338c.54,3.21-4.8,7-3.78,12.8s3.64,21.47,3.64,21.47c.65,3.2,2.42,5.68,4.59,6.22,1.67.34,3.05-1,2.62-4.48,0,0-3.22-18.92-3.72-21.87s5.24-5,7-4.65a18,18,0,0,1,6.25,4.06c-.46-2-.71-2.86-1.36-5.53-1.46-6-7.79-6.81-8.59-11.48Z" style="fill:#42454A"></path><path d="M396.16,374.58l-1.69-10.2a4.52,4.52,0,0,0-2.71-3.05h0c-1.31-.49-2.21.08-2,1.27l1.69,10.2a4.52,4.52,0,0,0,2.72,3h0C395.46,376.33,396.36,375.77,396.16,374.58Z" style="fill:#37474f"></path><path d="M394.57,373.88l-1.65-10a1.51,1.51,0,0,0-.91-1h0c-.44-.17-.74,0-.67.42l1.65,10a1.51,1.51,0,0,0,.91,1h0C394.34,374.47,394.64,374.28,394.57,373.88Z" style="fill:#42454A"></path><path d="M342.77,117.69c-15.61,10.12-33.4,7.62-40.63,7.27-9.68-.46-18.76-9.28-16-19.46,1.3-4.87,4.6-8.28,9.86-8.76a7,7,0,0,1,9.11-9.8C304.82,76,307.83,65.39,315,57c3.71-4.35,12.23-1.06,17.36,1.46s9.46,6.39,13.71,10.22c1.66,1.5,4.22,2,5.15,4A42.93,42.93,0,0,1,355.29,98C354.2,105.34,351.78,111.84,342.77,117.69Z" style="fill:#263238"></path><path d="M340.81,316a.81.81,0,0,0-.59.58c-.37,1.24-.35,2.65-.6,3.92a20.24,20.24,0,0,0-.5,6.43c.33,1.6,2.48,3.15,6.53,4.29a27.58,27.58,0,0,1,8.77,4.61c2.44,2.21,7.65,4.06,11.17,4.17,4.13.12,8.43-1,9.43-4,.42-1.24.74-3.39-5.16-5.71a34.7,34.7,0,0,1-5.76-2.7c-2.74-1.62-6.85-3.76-9.13-5.88a11.67,11.67,0,0,1-3.36-7.86,5,5,0,0,0-6.52,5.25c-.28.15-.63-.11-.73-.42a7.26,7.26,0,0,1-.11-.95,2,2,0,0,0-1.35-1.46A4.07,4.07,0,0,0,340.81,316Z" style="fill:#37474f"></path><path d="M332,206.13l5.73,40.1a139.33,139.33,0,0,0-3.15,15.1c-.89,7.77,4.59,38.21,6.23,49a22,22,0,0,1,.07,6.06h0c.58,4.69,4.1,6.14,7.74,8.79,1.81,1.33,9.77,6.16,14.57,7.13,3.91.8,6.91-1.54,4.51-3a50.23,50.23,0,0,1-12.8-9.89c-2.52-2.72-3-5.34-2.65-10.39s2.8-51.42,3.83-62.42c1.73-18.49,2.66-68.7,1.13-81.52L307.86,169" style="fill:#ffa8a7"></path><path d="M358.16,176.33c-.64-8.22-2.55-15.37-3.6-24.08-7.25,5.11-28.8,6.13-37.5-.73l11.42,49.33,7.23,44.65s-.74,4.87-1.49,10.23a80.07,80.07,0,0,0,.62,20.61c1,6,3.15,16.8,3.15,16.8,8.94,4.67,15.72-.11,15.72-.11s.87-12,2.54-29.67c1.83-19.38,2.26-37,2.36-49.92A310.46,310.46,0,0,0,358.16,176.33Z" style="fill:#37474f"></path><path d="M329.23,205.67l4.49-11.91s10.62-6.58,17.78-11.84c0,0-2.06,9.76-14.36,14.67L332.38,206l.52,23Z" style="fill:#263238"></path><path d="M250.75,240.26a6.6,6.6,0,0,0-6.9,2.7c-1.71,2.29-2.49,5.92-3.37,8.55a13.52,13.52,0,0,1-2.27,3.63c-1,1.41-3.65,4.26-4.53,5.75a13.68,13.68,0,0,0-1.49,3.87,13,13,0,0,0-.39,4.52c.27,2.35,1.51,5.67,3.53,6.91a4.31,4.31,0,0,0,6.45-1.94c.4-.89.81-1.77,1.16-2.68a25,25,0,0,1,2.63-4.91,30.25,30.25,0,0,1,4.79-5.3c.2-.17,2.38-2.4,2.55-2.58,2.56-2.71,2.66-1,2.84-2,.15-.79,1.59-10.43,1.59-13.05,0-.57-.79-.6-1.55-1C254.58,242.17,252.78,240.8,250.75,240.26Z" style="fill:#455a64"></path><path d="M256.61,245.15c-2.94-2.67-6.81,1.81-9.32,7.15s-5,6.73-7.28,12.32c-1.8,4.5,1.75,7.69,3.3,6.08a25.83,25.83,0,0,1,2.26-4,30.25,30.25,0,0,1,4.79-5.3c.2-.17.41-.34.59-.51a22.15,22.15,0,0,1,9.31-4.7c.77-.22-5.14-8.21-3.49-10.24a.64.64,0,0,0,.14-.33A1.94,1.94,0,0,0,256.61,245.15Z" style="fill:#ffa8a7"></path><path d="M312,242.64c-1.14,4.13-3.25,7.67-15,8.78-20.55,2-40.9,5.39-40.9,5.39s-3.65.47-5.76-4c-2.38-5,3.47-8.31,3.47-8.31a16.17,16.17,0,0,0,5.94-1.75c4.58-2.31,9.58-5.08,13.91-6.81C302.86,224.31,312,242.64,312,242.64Z" style="fill:#ffa8a7"></path><path d="M312.2,159.58a42.65,42.65,0,0,0-8.9,16.75c-.83,3-1.56,6.54-2.2,10.12h0c-.41,2.3-.77,4.6-1.09,6.76L293.91,231c-7.87-.13-12.13.69-21.82,5.5l-6.39,3.08s-1.45,3-.5,9.2c.75,4.9,3.93,6.22,3.93,6.22s18.73-1.63,25-2.37c6.78-.79,14-.33,20.93-13.39h0a154,154,0,0,0,6.8-14l11.85-31.45s19.49-5.28,23.4-23.76Z" style="fill:#37474f"></path><path d="M293,238.32c.17-1.85.48-4.43.88-7.32h-1.28A63.83,63.83,0,0,0,293,238.32Z" style="fill:#263238"></path><path d="M359.65,154c-19.28-33.27-11.81-43.67-14.37-51.07,7,.08,13.37,2.11,17.68,12.62,2.11,5.14,7.16,25.59,11,33.65a69.08,69.08,0,0,0,16,20.93c1.46,1.26,5.23,2,6.35,2.47,3,1.1,3.76,1.69,3,4.12a7.14,7.14,0,0,1-2.14,3,20.72,20.72,0,0,1-5.27,3.56c-1.53.7-4.63,2.07-6.34,1.52-.87-.27-1.89-1.56-2.55-2.17-.89-.84-1.76-1.7-2.6-2.58-1.61-1.66-3.14-3.39-4.62-5.16C367.57,165.08,362.89,159.58,359.65,154Z" style="fill:#ffa8a7"></path><path d="M358.57,119.78a195.77,195.77,0,0,0-13.29-16.86,55.7,55.7,0,0,0-16.25,0,80.62,80.62,0,0,0-15.78,4.38c-3.76,2-1.94,14.13-.61,22.13l2.43,10.19.37,1.56c.07.27.12.54.19.82a16.74,16.74,0,0,1-1.44,11.58c-4.14,7.89-6.5,9.93-9.35,17.17,9.14,13.46,47.06,14.95,53.21-1.2,0,0-1.68-7.89-3.07-15.56.14-6.37.13-13.92.18-15.39C362.89,133.84,362.89,126.06,358.57,119.78Z" style="fill:#42454A"></path><path d="M358.57,119.78a195.77,195.77,0,0,0-13.29-16.86,55.7,55.7,0,0,0-16.25,0,80.62,80.62,0,0,0-15.78,4.38c-3.76,2-1.94,14.13-.61,22.13l2.43,10.19.37,1.56c.07.27.12.54.19.82a16.74,16.74,0,0,1-1.44,11.58c-4.14,7.89-6.5,9.93-9.35,17.17,9.14,13.46,47.06,14.95,53.21-1.2,0,0-1.68-7.89-3.07-15.56.14-6.37.13-13.92.18-15.39C362.89,133.84,362.89,126.06,358.57,119.78Z" style="fill:#fff;opacity:0.55"></path><path d="M346.34,137.81s-5.93,5.24-13.22,3.17a12.22,12.22,0,0,1-8.72-8.23s-.23,8.2,8.93,10.4A11.81,11.81,0,0,0,346.34,137.81Z" style="opacity:0.1"></path><path d="M327,49.58a27.11,27.11,0,0,1,16.68,1.32c16.44-4.23,25.39,18.34,10,26.08,0,0-3.4,15.76-16.14,17.46l-12.57.33c-3.08-5.64-13.14-8.28-14-23C309.28,59.53,318.58,51.32,327,49.58Z" style="fill:#263238"></path><path d="M349.44,59.41c2.55,1.57,5.61,8.1,5.05,21.66-.48,11.49-4.26,14.26-6.15,15s-5.48.22-9-.43l.58,7.24s3.69,3.17,3.33,6.33-6.79,3-11.9,1a16,16,0,0,1-7.18-5.63l-1-17.69s-2.77,1.43-4.57-.51c-3.16-3.41-3.13-8-.84-10.24s6.56-1,7.41,2.2c0,0,5-.22,12.26-4.61C345.38,69,347.36,64.2,349.44,59.41Z" style="fill:#ffa8a7"></path><path d="M339.63,77.63a1.45,1.45,0,0,1-1.39,1.54,1.49,1.49,0,0,1-1.5-1.46,1.45,1.45,0,1,1,2.89-.08Z" style="fill:#263238"></path><path d="M339.34,86.14l5.22,2A2.75,2.75,0,0,1,341,89.85,2.93,2.93,0,0,1,339.34,86.14Z" style="fill:#b16668"></path><path d="M341.72,89.42a2.25,2.25,0,0,1-.08.58,2.84,2.84,0,0,1-.64-.15,2.91,2.91,0,0,1-1.82-2.65,2.53,2.53,0,0,1,.3,0A2.24,2.24,0,0,1,341.72,89.42Z" style="fill:#f28f8f"></path><path d="M352.35,73.7l-2.89-2.08a1.71,1.71,0,0,1,2.44-.46A1.87,1.87,0,0,1,352.35,73.7Z" style="fill:#263238"></path><path d="M351.61,77.08a1.46,1.46,0,0,1-1.39,1.54,1.49,1.49,0,0,1-1.5-1.46,1.45,1.45,0,1,1,2.89-.08Z" style="fill:#263238"></path><polygon points="344.79 76.17 344.86 84.87 349.46 83.54 344.79 76.17" style="fill:#f28f8f"></polygon><path d="M339.36,95.68c-3.69-.55-11.26-2.87-12.38-5.9a7.8,7.8,0,0,0,2.59,3.88c2.24,2,10,4.33,10,4.33Z" style="fill:#f28f8f"></path><path d="M382.23,180.07c1.55,1.36,3.43,5.28,5.62,6.93s8.38,1,8.38,1l-.05-4.77L389.27,180Z" style="fill:#f28f8f"></path><path d="M389.81,185.19l-3.49-6,14.76-8.52h0a1.68,1.68,0,0,1,1.76.15,5.47,5.47,0,0,1,2.47,4.27,1.77,1.77,0,0,1-.69,1.57h0l0,0h0Z" style="fill:#455a64"></path><path d="M390.53,183.6c0,1.57-1.1,2.21-2.46,1.42a5.44,5.44,0,0,1-2.47-4.27c0-1.57,1.11-2.2,2.47-1.42A5.46,5.46,0,0,1,390.53,183.6Z" style="fill:#37474f"></path><path d="M387.67,180.94a1,1,0,0,0-.68-.16l-14.44,8.32-.33.2,1.68,2.94,14.43-8.3.4-.25a.94.94,0,0,0,.17-.61A2.74,2.74,0,0,0,387.67,180.94Z" style="fill:#e0e0e0"></path><path d="M391.3,305.5h0L371.57,189.74l-5.63.32,17.53,102.78,1.64,9.81.58,3.24h0a1.51,1.51,0,0,0,.79,1,4.41,4.41,0,0,0,4,0A1.3,1.3,0,0,0,391.3,305.5Z" style="fill:#37474f"></path><path d="M371.8,191.11l-5.68,0,1.78,10.48,4.52,1.07c.45.1.91.18,1.39.24Z" style="fill:#263238"></path><path d="M366.77,191.13a4.41,4.41,0,0,0,4,0,1.22,1.22,0,0,0,0-2.31,4.41,4.41,0,0,0-4,0A1.22,1.22,0,0,0,366.77,191.13Z" style="fill:#455a64"></path><path d="M372.42,200.13c3.25.77,7.64.37,9.82-.89.92-.53,1.3-1.13,1.18-1.71-.16-.78-1.5-8.9-1.5-8.9l-22.18,0,1.51,8.92Z" style="fill:#37474f"></path><path d="M370.92,191.21c3.24.76,7.64.36,9.81-.9.91-.52,1.29-1.11,1.19-1.68-.14-.79-1.22-1.53-3.11-2L367.63,184l-7.89,4.56Z" style="fill:#455a64"></path><path d="M365.3,193.24l-16.5,9.54,1.69,2.92L367,196.22C367.93,195.67,366.63,192.67,365.3,193.24Z" style="fill:#e0e0e0"></path><path d="M341.09,212.75l-3.49-6,14.75-8.52h0a1.73,1.73,0,0,1,1.77.16,5.42,5.42,0,0,1,2.46,4.26,1.74,1.74,0,0,1-.69,1.57h0Z" style="fill:#455a64"></path><path d="M341.8,211.15c0,1.57-1.1,2.21-2.46,1.43a5.46,5.46,0,0,1-2.46-4.27c0-1.57,1.1-2.21,2.46-1.42A5.42,5.42,0,0,1,341.8,211.15Z" style="fill:#263238"></path><g id="freepik--Clock--inject-2"><path d="M385.7,192.33h0l-2.43-1.43h0a2.64,2.64,0,0,0-2.63.4,8.3,8.3,0,0,0-3.43,6.68,2.61,2.61,0,0,0,1.21,2.37h0l2.43,1.43h0a2.64,2.64,0,0,0,2.63-.4,8.31,8.31,0,0,0,3.44-6.68A2.66,2.66,0,0,0,385.7,192.33Z" style="fill:#455a64"></path><path d="M380.78,201.74l-2.38-1.4h0a2.61,2.61,0,0,1-1.21-2.37,7.33,7.33,0,0,1,.72-3.35l2.43,1.43a7.33,7.33,0,0,0-.72,3.35A2.64,2.64,0,0,0,380.78,201.74Z" style="fill:#263238"></path><path d="M383.47,201.38a8.31,8.31,0,0,0,3.44-6.68c-.12-2.39-1.85-3.28-3.86-2a8.3,8.3,0,0,0-3.43,6.68C379.73,201.79,381.46,202.68,383.47,201.38Z" style="fill:#37474f"></path><path d="M381.78,201.21c-1.18.06-1.38-1.27-1.4-1.85a7.56,7.56,0,0,1,3.08-6,2.66,2.66,0,0,1,1.28-.47c1.19-.06,1.38,1.27,1.41,1.85a7.57,7.57,0,0,1-3.09,6,2.59,2.59,0,0,1-1.28.47Z" style="fill:#263238"></path><path d="M383.46,193.36a2.86,2.86,0,0,1,1.15-.46,2.93,2.93,0,0,1,.32,1.27,7.57,7.57,0,0,1-3.09,6,2.88,2.88,0,0,1-1.14.46,2.93,2.93,0,0,1-.32-1.27A7.56,7.56,0,0,1,383.46,193.36Z" style="fill:#42454A"></path></g><path d="M383.34,166.55c8.76,3.42,17.07,3.48,20.49,8.57.82,2.42,1.81,8.07.08,10.24-2.49,3.14-8.78,5.69-11.61,2.29a11.79,11.79,0,0,1-1.55-3l3-1.75c1-2.13-1.47-6-3.56-6l-2.15,1.25,1.29-5.53Z" style="fill:#ffa8a7"></path><path d="M338.64,185.92c5.87,3.76,13.94,6.51,17.13,9s4.34,9.24,2.78,11.93-8.52,5.9-10.93,5.27-2.47-1.68-2.47-1.68l1.86-1.08c1.28-.78.17-5.78-3.09-6.25l-3.77,2.17a13.92,13.92,0,0,1-4.74-6.35Z" style="fill:#ffa8a7"></path><path d="M306.33,162.79c-8-26.53-6.81-44.75-3.77-49.44,2.31-3.57,7.27-5.7,12.21-6.63,3.45,3,4.82,10.91,2,22.22a186.35,186.35,0,0,0,4,26.21c1.8,7.95,17.27,28.91,23.77,34.11,4.18,3.35-2.14,11.05-8.06,12C331.72,191.92,311.07,178.5,306.33,162.79Z" style="fill:#ffa8a7"></path></g></g><g id="freepik--character-1--inject-2"><g id="freepik--character--inject-2"><path d="M114.08,313.71l-.82,1.65-7.58,4.39a11.56,11.56,0,0,1,.66-1.37,9.87,9.87,0,0,1,.77-1.21,9.69,9.69,0,0,1,1.61-1.7l.37-.28.53-.35a9.63,9.63,0,0,1,1-.52c.19-.08.37-.14.55-.2l.13-.05a7.49,7.49,0,0,1,1-.25A7.63,7.63,0,0,1,114.08,313.71Z" style="fill:#42454A"></path><path d="M114.08,313.71l-.82,1.65-7.58,4.39a11.56,11.56,0,0,1,.66-1.37,9.87,9.87,0,0,1,.77-1.21,9.69,9.69,0,0,1,1.61-1.7l.37-.28.53-.35a9.63,9.63,0,0,1,1-.52c.19-.08.37-.14.55-.2l.13-.05a7.49,7.49,0,0,1,1-.25A7.63,7.63,0,0,1,114.08,313.71Z" style="opacity:0.6000000000000001"></path><path d="M141.48,342.85h0c0-11.09-6.74-24-15.06-28.78a14.17,14.17,0,0,0-1.29-.65l-.12-.06a7.67,7.67,0,0,0-.86-.34c-.22-.08-.43-.17-.65-.24l-.63-.17c-.29-.07-.57-.14-.85-.18l-.46-.07a8.18,8.18,0,0,0-1-.06l-.19,0h-.6a17.64,17.64,0,0,0-14.27,8.15,14.38,14.38,0,0,0-2.64,7.26,17.89,17.89,0,0,0-.17,2.34,1.41,1.41,0,0,0,0,.2c0,.07,0,.14,0,.22h0c0,11.09,6.74,24,15.06,28.78.44.25.87.46,1.29.66l.12.06c.29.13.58.23.86.33l.65.24c.21.07.42.12.63.17s.57.14.86.19l.45.06c.33,0,1.45.08,1.57.08h.2a17.63,17.63,0,0,0,14.28-8.15,14.38,14.38,0,0,0,2.63-7.26,17.87,17.87,0,0,0,.17-2.33,1.27,1.27,0,0,0,0-.2c0-.08,0-.15,0-.22Z" style="fill:#37474f"></path><ellipse cx="117.77" cy="339.15" rx="13.08" ry="23.13" transform="translate(-123.39 73.19) rotate(-23.05)" style="fill:#455a64"></ellipse><path d="M122.16,355.63a9.3,9.3,0,0,1-4.61-1.38c-6.21-3.58-11.26-13.22-11.26-21.47,0-4.44,1.47-7.84,4-9.32,2.15-1.24,4.87-1,7.67.59,6.21,3.58,11.26,13.21,11.26,21.47,0,4.43-1.47,7.83-4,9.31A6,6,0,0,1,122.16,355.63Zm-8.77-32.06a5.15,5.15,0,0,0-2.61.67c-2.28,1.32-3.59,4.43-3.59,8.54,0,8,4.85,17.25,10.81,20.69,2.51,1.45,4.91,1.65,6.77.58,2.28-1.32,3.59-4.43,3.59-8.53,0-8-4.85-17.25-10.81-20.69A8.42,8.42,0,0,0,113.39,323.57Z" style="fill:#37474f"></path><path d="M123.05,344.35a2.34,2.34,0,0,0,.65,2l1.16,1.15a4.24,4.24,0,0,1-4.4,2.94l-.27-1.74A2.12,2.12,0,0,0,119,347c-.53-.14-.86.37-.74,1.14l.28,1.73a13.66,13.66,0,0,1-5.76-5.68l.88-.59a1.1,1.1,0,0,0,.28-1.09,2.26,2.26,0,0,0-.23-.71c-.36-.74-1-1.13-1.38-.86l-.89.59a20.27,20.27,0,0,1-1.26-4.46,14.35,14.35,0,0,1-.09-4.16l1.16,1.15a1.2,1.2,0,0,0,.51.32.56.56,0,0,0,.71-.48,2.29,2.29,0,0,0-.65-2l-1.16-1.15a4.25,4.25,0,0,1,4.41-2.93l.27,1.73a2.07,2.07,0,0,0,1.18,1.65c.52.14.85-.37.73-1.13l-.28-1.74a13.72,13.72,0,0,1,5.76,5.68l-.88.6a1.08,1.08,0,0,0-.29,1.08,3,3,0,0,0,.23.72c.37.74,1,1.12,1.38.86l.89-.6a19.63,19.63,0,0,1,1.27,4.48,14.27,14.27,0,0,1,.09,4.15l-1.17-1.15a1.09,1.09,0,0,0-.5-.32A.56.56,0,0,0,123.05,344.35Z" style="fill:#37474f"></path><path d="M198.93,391.66l-83.18-48a7.22,7.22,0,0,1-3-5.74h0c0-2.21,1.35-3.23,3-2.27L128.44,343l2.33.21,74.17,41.76Z" style="fill:#263238"></path><path d="M124.66,347.3l-9-5.17a4.52,4.52,0,0,1-1.9-3.62h0c0-1.39.85-2,1.9-1.43l9,5.17a4.53,4.53,0,0,1,1.89,3.62h0C126.55,347.26,125.71,347.9,124.66,347.3Z" style="fill:#37474f"></path><path d="M124.57,345.57l-8.77-5.07a1.51,1.51,0,0,1-.64-1.21h0c0-.47.29-.68.64-.48l8.77,5.07a1.51,1.51,0,0,1,.64,1.21h0C125.21,345.56,124.92,345.77,124.57,345.57Z" style="fill:#42454A"></path><polygon points="198.94 391.66 211.51 384.4 217.51 377.66 204.94 384.92 198.94 391.66"></polygon><path d="M213,370l-64.14-37-16.56,9.57v2.58l64.13,37c5.77,3.33,14.16,3.89,18.73,1.25,1.95-1.13,2.88-2.66,2.87-4.3,0-.42,0-2.12,0-2.56C218,374.36,216.3,372,213,370Z" style="fill:#37474f"></path><path d="M213,368.91l-64.14-37-16.56,9.57V344l64.13,37c5.77,3.33,14.16,3.89,18.73,1.25,1.95-1.13,2.88-2.66,2.87-4.3,0-.42,0-2.12,0-2.56C218,373.24,216.3,370.83,213,368.91Z" style="fill:#42454A"></path><path d="M213,368.91l-64.14-37-16.56,9.57V344l64.13,37c5.77,3.33,14.16,3.89,18.73,1.25,1.95-1.13,2.88-2.66,2.87-4.3,0-.42,0-2.12,0-2.56C218,373.24,216.3,370.83,213,368.91Z" style="opacity:0.30000000000000004"></path><path d="M215.15,379.73c-4.57,2.64-13,2.09-18.73-1.24l-64.12-37,2.88-1.68,1.65-.95h0l7.58-4.38,4.43-2.57,64.13,37C218.76,372.24,219.72,377.09,215.15,379.73Z" style="fill:#42454A"></path><path d="M136.83,338.83l-1.65.95c-1.81-9.93-7.9-20-15.15-24.2a12.62,12.62,0,0,0-6-1.87,7.63,7.63,0,0,0-1.73.11,7.49,7.49,0,0,0-1,.25l-.13.05c-.18.06-.36.12-.55.2a9.63,9.63,0,0,0-1,.52,6.06,6.06,0,0,0-.53.35l-.37.28a9.69,9.69,0,0,0-1.61,1.7,9.87,9.87,0,0,0-.77,1.21,11.56,11.56,0,0,0-.66,1.37,2.5,2.5,0,0,1-2.68.56c.94-4,2.87-6.82,5.45-8.31,3.1-1.79,7.15-1.62,11.58.94C127.86,317.46,134.5,328.08,136.83,338.83Z" style="fill:#42454A"></path><path d="M136.83,338.83l-1.65.95c-1.81-9.93-7.9-20-15.15-24.2a12.62,12.62,0,0,0-6-1.87,7.63,7.63,0,0,0-1.73.11,7.49,7.49,0,0,0-1,.25l-.13.05c-.18.06-.36.12-.55.2a9.63,9.63,0,0,0-1,.52,6.06,6.06,0,0,0-.53.35l-.37.28a9.69,9.69,0,0,0-1.61,1.7,9.87,9.87,0,0,0-.77,1.21,11.56,11.56,0,0,0-.66,1.37,2.5,2.5,0,0,1-2.68.56c.94-4,2.87-6.82,5.45-8.31,3.1-1.79,7.15-1.62,11.58.94C127.86,317.46,134.5,328.08,136.83,338.83Z" style="opacity:0.4"></path><path d="M136.84,338.83h0c-2.33-10.75-9-21.37-16.8-25.89-4.43-2.56-8.48-2.73-11.58-.94l7.6-4.39c3.1-1.79,7.14-1.62,11.57.94,7.84,4.52,14.48,15.14,16.8,25.89h0C145.45,339.13,141.69,341.63,136.84,338.83Z" style="fill:#42454A"></path><g style="opacity:0.2"><path d="M136.84,338.83h0c-2.33-10.75-9-21.37-16.8-25.89-4.43-2.56-8.48-2.73-11.58-.94l7.6-4.39c3.1-1.79,7.14-1.62,11.57.94,7.84,4.52,14.48,15.14,16.8,25.89h0C145.45,339.13,141.69,341.63,136.84,338.83Z"></path></g><path d="M232.64,371.67a.53.53,0,0,1-.24-.06.59.59,0,0,1-.31-.79c3.69-8.33,2.37-13.84-.1-16.21a5.33,5.33,0,0,0-6.25-.9.6.6,0,0,1-.53-1.08,6.56,6.56,0,0,1,7.62,1.11c2.76,2.66,4.3,8.67.36,17.57A.61.61,0,0,1,232.64,371.67Z" style="fill:#263238"></path><path d="M236,374.68a.52.52,0,0,1-.24-.05.6.6,0,0,1-.31-.79c3.51-8.18,2.22-15.15.05-18.63a8.21,8.21,0,0,0-5-3.63,6.83,6.83,0,0,0-5.3,1,.6.6,0,0,1-.65-1,8,8,0,0,1,6.22-1.16,9.42,9.42,0,0,1,5.79,4.17c2.33,3.73,3.73,11.13,0,19.75A.63.63,0,0,1,236,374.68Z" style="fill:#263238"></path><path d="M249.62,405.28h0c0-11.1-6.74-24-15.06-28.79-.44-.25-.86-.45-1.29-.65l-.12-.06c-.29-.13-.57-.23-.86-.34l-.65-.23c-.21-.07-.42-.12-.63-.17s-.57-.14-.85-.19l-.46-.06c-.33,0-.66-.06-1-.07h-.79a17.59,17.59,0,0,0-14.27,8.15,14.38,14.38,0,0,0-2.64,7.25,18.15,18.15,0,0,0-.17,2.34,1.34,1.34,0,0,0,0,.2c0,.08,0,.14,0,.22h0c0,11.1,6.74,24,15.06,28.79.44.25.87.45,1.29.65l.12.06c.29.13.58.23.86.34s.44.17.65.23.42.12.63.17.58.14.86.19l.45.06c.33,0,1.45.09,1.57.09h.2a17.64,17.64,0,0,0,14.28-8.16,14.34,14.34,0,0,0,2.63-7.25,18,18,0,0,0,.17-2.34,1.34,1.34,0,0,0,0-.2c0-.07,0-.14,0-.22Z" style="fill:#37474f"></path><ellipse cx="225.91" cy="401.58" rx="13.08" ry="23.13" transform="translate(-139.2 120.52) rotate(-23.05)" style="fill:#455a64"></ellipse><path d="M230.3,418.07a9.4,9.4,0,0,1-4.61-1.38c-6.21-3.59-11.26-13.22-11.26-21.48,0-4.44,1.47-7.83,4-9.31,2.15-1.24,4.87-1,7.67.58,6.21,3.58,11.26,13.22,11.26,21.47,0,4.44-1.47,7.83-4,9.32A6.1,6.1,0,0,1,230.3,418.07ZM221.53,386a5.16,5.16,0,0,0-2.61.68c-2.28,1.32-3.59,4.43-3.59,8.53,0,8,4.85,17.25,10.81,20.69,2.51,1.45,4.91,1.66,6.77.59,2.28-1.32,3.59-4.43,3.59-8.54,0-8-4.85-17.25-10.81-20.69A8.42,8.42,0,0,0,221.53,386Z" style="fill:#37474f"></path><path d="M231.2,406.79a2.29,2.29,0,0,0,.65,2l1.15,1.15a4.23,4.23,0,0,1-4.4,2.93l-.27-1.73a2.09,2.09,0,0,0-1.17-1.65c-.53-.14-.86.37-.74,1.13l.28,1.74a13.78,13.78,0,0,1-5.76-5.68l.88-.6a1.08,1.08,0,0,0,.28-1.08,2.32,2.32,0,0,0-.23-.72c-.36-.74-1-1.12-1.37-.86l-.9.6a20.35,20.35,0,0,1-1.26-4.47,14.35,14.35,0,0,1-.09-4.16l1.16,1.15a1.11,1.11,0,0,0,.51.32.55.55,0,0,0,.71-.47,2.28,2.28,0,0,0-.65-2l-1.16-1.15a4.26,4.26,0,0,1,4.41-2.94l.27,1.74a2.11,2.11,0,0,0,1.18,1.65c.52.14.85-.37.73-1.14l-.28-1.73a13.66,13.66,0,0,1,5.76,5.68l-.88.59a1.08,1.08,0,0,0-.28,1.09,2.62,2.62,0,0,0,.22.71c.37.74,1,1.13,1.38.86l.9-.59a20,20,0,0,1,1.26,4.47,14.27,14.27,0,0,1,.09,4.15l-1.16-1.15a1.26,1.26,0,0,0-.51-.32A.56.56,0,0,0,231.2,406.79Z" style="fill:#37474f"></path><path d="M224.82,361.8l-2.08-12.49-21.19,23.63h0c-1.12,1.24-.8,2.8,1,3.84a8.93,8.93,0,0,0,8.07,0,4.23,4.23,0,0,0,1-.79h0Z" style="fill:#37474f"></path><path d="M229.36,367.1h0l-5.72-33.59-7.17.4,2.9,17.06,2.08,12.49.75,4.12h0a2,2,0,0,0,1,1.22,5.63,5.63,0,0,0,5.09,0A1.65,1.65,0,0,0,229.36,367.1Z" style="fill:#42454A"></path><path d="M217.55,335.27a5.57,5.57,0,0,0,5.09,0c1.41-.81,1.41-2.12,0-2.94a5.63,5.63,0,0,0-5.09,0C216.14,333.15,216.14,334.46,217.55,335.27Z" style="fill:#42454A"></path><path d="M217.55,335.27a5.57,5.57,0,0,0,5.09,0c1.41-.81,1.41-2.12,0-2.94a5.63,5.63,0,0,0-5.09,0C216.14,333.15,216.14,334.46,217.55,335.27Z" style="opacity:0.30000000000000004"></path><path d="M221.92,366c.53,3.2-4.8,7-3.79,12.8s3.65,21.46,3.65,21.46c.65,3.2,2.41,5.68,4.58,6.22,1.68.35,3.06-1,2.63-4.47l-3.72-21.87c-.5-2.95,5.24-5,7-4.66a17.87,17.87,0,0,1,6.24,4.06c-.46-2-.7-2.85-1.35-5.53-1.46-6-7.79-6.81-8.59-11.48Z" style="fill:#42454A"></path><path d="M227.78,402.53l-1.69-10.2a4.54,4.54,0,0,0-2.72-3.05h0c-1.3-.49-2.2.08-2,1.27l1.69,10.2a4.54,4.54,0,0,0,2.71,3.05h0C227.08,404.29,228,403.72,227.78,402.53Z" style="fill:#37474f"></path><path d="M226.19,401.84l-1.65-10a1.53,1.53,0,0,0-.91-1h0c-.44-.17-.74,0-.68.42l1.66,10a1.49,1.49,0,0,0,.91,1h0C226,402.43,226.26,402.24,226.19,401.84Z" style="fill:#42454A"></path><path d="M190.76,179.52c-10.13-21.9-4.73-48.76-3.3-58.34,7.08.08,13,5.5,13,20.89,0,5.63.86,24.42,4.73,32.59a70.27,70.27,0,0,0,16.18,21.2c1.48,1.28,5.3,2.08,6.44,2.5,3,1.11,3.8,1.71,3,4.17a7.24,7.24,0,0,1-2.16,3,21.07,21.07,0,0,1-5.35,3.61c-1.54.71-4.68,2.09-6.42,1.54-.88-.28-1.9-1.58-2.57-2.2-.91-.85-1.78-1.72-2.64-2.61-1.63-1.68-3.18-3.44-4.68-5.23C198.78,190.75,193.5,185.46,190.76,179.52Z" style="fill:#ffa8a7"></path><path d="M184.65,120.82c7.69.05,11.67,2.34,14.14,7.11s3.88,25.61,5,30.27c0,0-3.61,7.65-21.4,5.67Z" style="fill:#455a64"></path><g id="freepik--character-dad--inject-2"><path d="M190.89,184.27l-33.51,7.45,10,56.48s-7.87,8.49-12.13,18c-3.1,6.92-12,35.35-13.76,39.71l-3.22,8.17c-.2,1.38.6,4.12,4,5.08s6.71-.67,7.15-1.94c0,0,.34-1.58,4.66-7.65s35.43-49.68,37-52.55c2.33-4.31,5-8,4.61-21.78C195.24,221.27,192.63,191.25,190.89,184.27Z" style="fill:#ffa8a7"></path><path d="M192.84,192s.84,7.21,2.71,25.32,3.27,25.59-1.92,36.67-13.79,23.4-16.56,27.12A32.87,32.87,0,0,1,153.7,267L161,250.68,145.23,198Z" style="fill:#455a64"></path><path d="M157.73,261.39a51.31,51.31,0,0,0-2.49,4.84c-.75,1.67-1.85,4.61-3.1,8.16.52,4.76,1.23,11,1.52,12.3l2.58,0a105.73,105.73,0,0,0,3.11,15.48l9-12.7C166.22,279.26,159.86,266.29,157.73,261.39Z" style="fill:#f28f8f"></path><path d="M192.11,192.24s.12,9.1-5.15,15.7-9.09,8.39-9.09,8.39,4.86,31.25,5.85,37.28c1.18,7.16.43,17.17.43,17.17l-10.37-55.62Z" style="fill:#37474f"></path><path d="M133.84,320.21c-.71-.08-1.68,2.45-1.68,3.27a10.58,10.58,0,0,0,2,4.2,20.58,20.58,0,0,1,3.44,6.23,26,26,0,0,0,4,9.07,15.27,15.27,0,0,0,18,4.89c5.39-2.06,5.39-4,4.92-5.26Z" style="fill:#37474f"></path><path d="M151.13,315.73c-.2,2.93.39,10.79,5.52,16.15,3.44,3.6,7.77,6.07,7.92,9.92.1,2.39-5.29,5.07-10.86,4.69-3.61-.25-6.31-.84-8.47-2.88a17.13,17.13,0,0,1-5.26-8.34,35.81,35.81,0,0,0-2.73-7c-1.22-2.19-3.48-4.65-3.58-6.93-.06-1.25,1.14-3.6,2.32-5.54,1.08-1.78,1.91-3.53,2.9-3.35l-.39,1a9.14,9.14,0,0,0,3.44,1.78c.53.18,1,2.17,1.58,2.17s.14-1.57,1.13-2.16C147.86,313.34,151.13,315.73,151.13,315.73Z" style="fill:#455a64"></path><path d="M184.7,335.53s-2.15-49-3.24-70.13a400.36,400.36,0,0,0-9.59-49.54,34.48,34.48,0,0,0,10.55-9.5c7.53-9.89,7.73-18.47,7.73-18.47l-4.09-.46-44.4-.06c-.18,7.33-.89,17.6-.29,27.14,1.24,19.55,18.67,54.8,18.67,54.8-.29,2.68-2.71,14-.39,24.05,3.67,15.89,12.37,36,13.79,44.64h0l1.47,7.26L186.06,343l-1.36-7.48Z" style="fill:#ffa8a7"></path><path d="M140.71,185.22a209.28,209.28,0,0,0-2.08,21c-.14,6,1.23,14.35,3.66,22.8s9.63,28.93,10.55,31.91,2.67,22.41,2.67,22.41,17.19,4.5,29.13-2.64c0,0-.85-19.43-1.72-24.39s-9.14-41.12-9.14-41.12,18.05-10.94,19.06-27.55Z" style="fill:#455a64"></path><path d="M173.1,349.23c-.69.28-.35,3.08.05,3.84a9.33,9.33,0,0,0,3.55,3.21,14.3,14.3,0,0,1,5.41,4.28,23.7,23.7,0,0,0,8.22,6.54c4,1.87,9.16,2.6,13.76.6s4.87-4.12,4.65-5.93Z" style="fill:#37474f"></path><path d="M186.86,336.63a45.67,45.67,0,0,0,10,13.55c3.84,3.34,11.13,7.75,12,10.38,1.39,3.95-6.09,5.82-9.64,5.91a18.36,18.36,0,0,1-9-2,24.11,24.11,0,0,1-4-2.71c-2.46-2-4.3-4.64-6.1-6.26s-5.47-3.1-6.68-5.15c-.66-1.13-.71-3.88-.57-6.25.12-2.16-.17-4.17.84-4.49l.25,1.24a22.62,22.62,0,0,0,4.12-.18c.58-.1,2,1.52,2.53,1.23s-.64-1.52,0-2.55C182.67,336,186.86,336.63,186.86,336.63Z" style="fill:#455a64"></path><path d="M194.31,154.88c1.81-14.94,4.69-30.5-6.85-33.7-2.71-.75-9.62-.23-9.62-.23l-11.24.56c-7.09,1.5-17.76,2.7-20.34,8.36s-4.72,7-6.13,28.5c-.91,13.76-1.51,26.13-1.7,42.15,11.63,6.22,47.07,4.57,54.73-7.77C192.82,182,191.85,175.13,194.31,154.88Z" style="fill:#42454A"></path><path d="M198.24,88.32A15.66,15.66,0,0,0,167,86.71l-7-5.16a5.57,5.57,0,0,0-4.6,1.62c-2,2-.86,8.35,1.61,14.55,0,0,2.41,11.27,3.37,13.13a5.11,5.11,0,0,0,3,2.37l-.15-6.84,28.46-1.65-2.78-2A15.68,15.68,0,0,0,198.24,88.32Z" style="fill:#263238"></path><path d="M162.86,98.23c-.91.55-1.71-1.37-3.33-2.36-1.37-.85-4.48-2.35-6.59,1.07-2.27,3.69,1.69,8.88,4.5,10,4.15,1.62,5.69-1.63,5.69-1.63l.4,17.87c5.54,10.44,19.85,8.68,16.12-.49l0-5.44a31.21,31.21,0,0,0,6.68.34c3.64-.57,5.93-3.45,7-7.39,1.77-6.34,2.43-11.45.92-23.91-1.67-13.65-17.55-13.78-26.12-8.37S162.86,98.23,162.86,98.23Z" style="fill:#ffa8a7"></path><path d="M197.9,73.6a5.83,5.83,0,0,0-3.84-.5,4.64,4.64,0,0,0-2.72-4.71,5.36,5.36,0,0,0-5.89.71c.4-1.38-.84-2.81-2.24-3.14a7.47,7.47,0,0,0-4.19.64c-2,.73-4,1.55-6,2.2-3.59,1.15-7.4,1.78-10.66,3.67a6.55,6.55,0,0,0-2,1.69,5.62,5.62,0,0,0-1,3.53,7,7,0,0,0,.15,1.22,2.92,2.92,0,0,0-.84-.67,3,3,0,0,0-4.15,1.38l5.35,2.86c-.15,1.08-.3,2.16-.42,3.25-.33,2.87-.93,6.2-.33,9.07a2.17,2.17,0,0,0,.34,1,17.19,17.19,0,0,1,2.77,2.76c.41.52.9,1.34,1.57,1.55a1.62,1.62,0,0,0,1.87-.82,2.85,2.85,0,0,0,.08-1.27l-.45-5.31a2.91,2.91,0,0,1,.11-1.41,4,4,0,0,1,1.31-1.36,6.11,6.11,0,0,0,2.17-4.22,6.44,6.44,0,0,1,.17-1.52c.11-.37.42-1,.84-1,.83,0,5.33,1.05,6.46,1.22,5.88.89,12.22,1.13,17.46-1.69,2-1.1,5.49-3.39,5.88-5.89A3.34,3.34,0,0,0,197.9,73.6Z" style="fill:#263238"></path><path d="M179.63,117.23s-8.14-1.63-11-3.14a9.42,9.42,0,0,1-3.94-3.88,12.87,12.87,0,0,0,2.24,4.58c2.08,2.66,12.68,4.6,12.68,4.6Z" style="fill:#f28f8f"></path><path d="M179.56,97A1.53,1.53,0,1,1,178,95.41,1.56,1.56,0,0,1,179.56,97Z" style="fill:#263238"></path><path d="M176.66,91.26,173.06,93a2.08,2.08,0,0,1,1-2.71A1.94,1.94,0,0,1,176.66,91.26Z" style="fill:#263238"></path><path d="M176.5,106.5l6.44,2.41a3.38,3.38,0,0,1-4.37,2.13A3.59,3.59,0,0,1,176.5,106.5Z" style="fill:#b16668"></path><path d="M180.52,111.15a3.38,3.38,0,0,0-3.74-2.93c-.14,0-.28.06-.42.09a3.5,3.5,0,0,0,2.21,2.73A3.19,3.19,0,0,0,180.52,111.15Z" style="fill:#f28f8f"></path><path d="M193.62,92.68l-3.43-1.85a1.87,1.87,0,0,1,2.59-.78A2,2,0,0,1,193.62,92.68Z" style="fill:#263238"></path><path d="M191.81,96.91a1.53,1.53,0,1,1-1.53-1.59A1.56,1.56,0,0,1,191.81,96.91Z" style="fill:#263238"></path><polygon points="184.03 95.85 184.2 105.73 190.04 104.46 184.03 95.85" style="fill:#f28f8f"></polygon><path d="M140,219.52s12.92,1.13,20.24.1c0,0,6.43,27.14,6.69,30.27s-12.76,2.79-15.38,2.33-4.63-.93-6.36-7.85S140.59,226.31,140,219.52Z" style="fill:#37474f"></path></g><path d="M213.85,208c1.55,1.36,3.43,5.28,5.62,6.93s8.38,1,8.38,1l-.06-4.78-6.9-3.21Z" style="fill:#f28f8f"></path><path d="M221.43,213.14l-3.49-6,14.75-8.51h0a1.71,1.71,0,0,1,1.76.15,5.46,5.46,0,0,1,2.46,4.27,1.75,1.75,0,0,1-.69,1.57h0l0,0h0Z" style="fill:#455a64"></path><path d="M222.15,211.55c0,1.57-1.11,2.21-2.47,1.42a5.42,5.42,0,0,1-2.46-4.26c0-1.57,1.1-2.21,2.46-1.43A5.47,5.47,0,0,1,222.15,211.55Z" style="fill:#37474f"></path><path d="M219.29,208.89a1,1,0,0,0-.68-.15l-14.44,8.31-.34.2,1.69,2.94,14.43-8.3.4-.25a.91.91,0,0,0,.17-.61A2.77,2.77,0,0,0,219.29,208.89Z" style="fill:#e0e0e0"></path><path d="M222.92,333.46h0L203.19,217.7l-5.63.32,17.53,102.77,1.64,9.81.58,3.24h0a1.58,1.58,0,0,0,.8,1,4.41,4.41,0,0,0,4,0A1.3,1.3,0,0,0,222.92,333.46Z" style="fill:#37474f"></path><path d="M203.42,219.06h-5.69l1.79,10.47,4.52,1.07c.44.1.91.18,1.39.24Z" style="fill:#263238"></path><path d="M198.39,219.08a4.41,4.41,0,0,0,4,0,1.22,1.22,0,0,0,0-2.31,4.47,4.47,0,0,0-4,0A1.22,1.22,0,0,0,198.39,219.08Z" style="fill:#455a64"></path><path d="M204,228.09c3.24.76,7.64.36,9.82-.9.92-.53,1.29-1.13,1.18-1.7-.16-.79-1.5-8.9-1.5-8.9l-22.18-.06,1.5,8.93Z" style="fill:#37474f"></path><path d="M202.54,219.16c3.24.76,7.63.36,9.81-.9.91-.52,1.29-1.11,1.19-1.67-.14-.8-1.22-1.54-3.12-2L199.25,212l-7.89,4.56Z" style="fill:#455a64"></path><path d="M196.91,221.19l-16.49,9.54,1.68,2.92,16.48-9.47C199.55,223.63,198.24,220.62,196.91,221.19Z" style="fill:#e0e0e0"></path><path d="M172.7,240.7l-3.49-6L184,226.15h0a1.73,1.73,0,0,1,1.77.16,5.42,5.42,0,0,1,2.46,4.26,1.75,1.75,0,0,1-.69,1.57h0l0,0h0Z" style="fill:#455a64"></path><path d="M173.42,239.11c0,1.57-1.1,2.2-2.46,1.42a5.46,5.46,0,0,1-2.46-4.27c0-1.57,1.1-2.21,2.46-1.42A5.43,5.43,0,0,1,173.42,239.11Z" style="fill:#263238"></path><g id="freepik--clock--inject-2"><path d="M217.31,220.28h0l-2.43-1.43h0a2.64,2.64,0,0,0-2.63.39,8.34,8.34,0,0,0-3.44,6.68,2.66,2.66,0,0,0,1.21,2.37h0l2.43,1.43h0a2.64,2.64,0,0,0,2.63-.4,8.28,8.28,0,0,0,3.43-6.68A2.61,2.61,0,0,0,217.31,220.28Z" style="fill:#455a64"></path><path d="M212.4,229.7,210,228.29h0a2.66,2.66,0,0,1-1.21-2.37,7.47,7.47,0,0,1,.73-3.35L212,224a7.47,7.47,0,0,0-.73,3.35A2.69,2.69,0,0,0,212.4,229.7Z" style="fill:#263238"></path><path d="M215.09,229.33a8.28,8.28,0,0,0,3.43-6.68c-.11-2.39-1.84-3.28-3.85-2a8.34,8.34,0,0,0-3.44,6.68C211.35,229.74,213.08,230.63,215.09,229.33Z" style="fill:#37474f"></path><path d="M213.4,229.17c-1.18.05-1.38-1.28-1.41-1.86a7.6,7.6,0,0,1,3.09-6,2.69,2.69,0,0,1,1.28-.47c1.18-.06,1.38,1.27,1.4,1.85a7.56,7.56,0,0,1-3.08,6,2.75,2.75,0,0,1-1.28.48Z" style="fill:#263238"></path><path d="M215.08,221.31a2.71,2.71,0,0,1,1.14-.45,2.88,2.88,0,0,1,.33,1.26,7.57,7.57,0,0,1-3.09,6,2.88,2.88,0,0,1-1.14.46,2.92,2.92,0,0,1-.33-1.27A7.6,7.6,0,0,1,215.08,221.31Z" style="fill:#42454A"></path></g><path d="M215,194.5c8.76,3.42,17.06,3.48,20.48,8.57.83,2.42,1.82,8.07.09,10.24-2.5,3.14-8.78,5.69-11.61,2.29a11.79,11.79,0,0,1-1.55-3l3-1.75c1-2.13-1.47-6-3.56-6l-2.16,1.25,1.29-5.53Z" style="fill:#ffa8a7"></path><path d="M170.26,213.87c5.86,3.77,13.93,6.51,17.13,9s4.34,9.25,2.77,11.93-8.51,5.9-10.92,5.27-2.47-1.68-2.47-1.68l1.86-1.07c1.27-.79.16-5.78-3.09-6.26l-3.77,2.17a13.85,13.85,0,0,1-4.74-6.35Z" style="fill:#ffa8a7"></path><path d="M138.23,186.43c-4.16-15.52-4-46.15.74-54.21,2.16-3.67,8.76-6.43,13.7-7.37,3.1,3,3.78,14.91,1,26.22.25,5.62,0,25.46.93,30.58,1.45,8,15.11,30.36,21.61,35.56,4.18,3.35-2.14,11-8.06,12C163.34,219.87,142.48,202.27,138.23,186.43Z" style="fill:#ffa8a7"></path><path d="M153.16,124.66c-6.31.44-12.31,2.76-15.26,6.72s-4.08,11.84-4.5,20.14,0,21.27,0,21.27,9.35,5.33,22,.4l-1-22.63S158.06,129.7,153.16,124.66Z" style="fill:#455a64"></path></g></g></svg>